<?xml version="1.0" standalone="no"?>
<!DOCTYPE svg PUBLIC "-//W3C//DTD SVG 20010904//EN"
 "http://www.w3.org/TR/2001/REC-SVG-20010904/DTD/svg10.dtd">
<svg version="1.0" xmlns="http://www.w3.org/2000/svg"
 width="258.000000pt" height="258.000000pt" viewBox="0 0 258.000000 260.000000"
 preserveAspectRatio="xMidYMid meet">

<g transform="translate(0.000000,258.000000) scale(0.100000,-0.100000)"
fill="#000000" stroke="none">
<path d="M1075 2554 c-460 -81 -849 -414 -995 -852 -50 -152 -64 -242 -64
-412 0 -268 65 -490 210 -706 184 -278 480 -478 814 -550 117 -26 381 -26 497
-1 470 101 837 429 977 875 96 308 70 663 -71 947 -122 245 -339 463 -581 584
-89 45 -251 97 -356 116 -109 19 -322 18 -431 -1z m306 -434 c139 -43 234
-120 259 -208 5 -20 10 -81 10 -135 0 -83 3 -102 21 -126 18 -25 19 -33 9 -71
-13 -47 -127 -240 -167 -282 l-26 -27 28 -37 c34 -44 64 -57 223 -96 151 -37
193 -64 237 -153 29 -59 30 -63 34 -242 l3 -183 -66 0 -65 0 4 28 c3 15 14 98
26 186 19 149 19 159 3 177 -16 18 -41 19 -595 19 l-579 0 -14 -23 c-12 -19
-11 -40 4 -157 10 -74 21 -156 25 -182 l6 -48 -64 0 -64 0 -6 133 c-10 207 12
299 89 366 45 40 61 47 204 82 161 40 186 53 203 102 l13 41 -67 100 c-92 140
-109 174 -109 223 0 32 5 46 20 55 18 12 20 24 20 117 0 57 5 121 12 143 16
55 81 124 147 158 32 15 63 35 70 44 18 22 75 20 152 -4z m-8 -1387 c28 -26
23 -87 -9 -112 -35 -28 -69 -26 -99 4 -74 73 30 178 108 108z"/>
<path d="M1110 1789 c-19 -6 -38 -14 -42 -17 -4 -4 -3 -35 1 -69 6 -56 5 -63
-10 -63 -34 0 -49 -12 -49 -39 0 -36 128 -238 184 -289 76 -70 159 -77 237
-20 62 45 221 300 204 327 -3 6 -20 11 -37 11 -30 0 -30 1 -24 39 3 22 9 46
12 55 5 13 -3 16 -47 16 -30 0 -101 12 -159 26 -122 29 -220 38 -270 23z"/>
<path d="M1164 1204 c-20 -53 -13 -65 53 -90 81 -31 203 -19 263 26 l24 18
-28 41 -28 40 -31 -16 c-44 -23 -146 -21 -196 4 l-40 20 -17 -43z"/>
</g>
</svg>
